<?xml version="1.0" encoding="UTF-8"?>
<!-- Created with Inkscape (http://www.inkscape.org/) -->
<svg width="210mm" height="297mm" version="1.1" viewBox="0 0 210 297" xml:space="preserve" xmlns="http://www.w3.org/2000/svg"><g fill="#333"><g stroke-width=".19517"><rect x="86.653" y="33.865" width="37.591" height="25.06"/><rect transform="rotate(47.481)" x="150.07" y="-86.452" width="37.591" height="25.06"/><rect transform="rotate(-46.971)" x="-45.095" y="68.48" width="37.591" height="25.06"/><rect transform="rotate(268.36)" x="-161.13" y=".63318" width="37.591" height="25.06"/><rect transform="rotate(224.21)" x="-196.48" y="-133.55" width="37.591" height="25.06"/><rect transform="rotate(-.23193)" x="85.864" y="224.61" width="37.591" height="25.06"/><rect transform="rotate(90.717)" x="120.34" y="-206.94" width="37.591" height="25.06"/><rect transform="rotate(134.46)" x="13.197" y="-279.69" width="37.591" height="25.06"/></g><path d="m105.62 56.281a85 85 0 0 0-85 85 85 85 0 0 0 85 85 85 85 0 0 0 85-85 85 85 0 0 0-85-85zm1.0583 43.813a40 40 0 0 1 40 40 40 40 0 0 1-40 40 40 40 0 0 1-40-40 40 40 0 0 1 40-40z" stroke-width=".30778"/></g></svg>